{
	"asset":{
		"generator":"Khronos glTF Blender I/O v4.5.49",
		"version":"2.0"
	},
	"scene":0,
	"scenes":[
		{
			"name":"Scene",
			"nodes":[
				0
			]
		}
	],
	"nodes":[
		{
			"mesh":0,
			"name":"Text",
			"rotation":[
				0.7071068286895752,
				0,
				0,
				0.7071068286895752
			]
		}
	],
	"materials":[
		{
			"doubleSided":true,
			"name":"2",
			"normalTexture":{
				"index":0
			},
			"pbrMetallicRoughness":{
				"baseColorTexture":{
					"index":1
				},
				"metallicRoughnessTexture":{
					"index":2
				}
			}
		}
	],
	"meshes":[
		{
			"name":"Text.002",
			"primitives":[
				{
					"attributes":{
						"POSITION":0,
						"NORMAL":1,
						"TEXCOORD_0":2
					},
					"indices":3,
					"material":0
				}
			]
		}
	],
	"textures":[
		{
			"sampler":0,
			"source":0
		},
		{
			"sampler":0,
			"source":1
		},
		{
			"sampler":0,
			"source":2
		}
	],
	"images":[
		{
			"mimeType":"image/png",
			"name":"normal_map.png",
			"uri":"textures/normal_map.png"
		},
		{
			"mimeType":"image/png",
			"name":"color_map.png",
			"uri":"textures/color_map.png"
		},
		{
			"mimeType":"image/png",
			"name":"roughness_map.png",
			"uri":"textures/roughness_map.png"
		}
	],
	"accessors":[
		{
			"bufferView":0,
			"componentType":5126,
			"count":3083735,
			"max":[
				0.8015842437744141,
				0.22364439070224762,
				0.06506089121103287
			],
			"min":[
				-0.7967853546142578,
				-0.22425034642219543,
				-1.1245007514953613
			],
			"type":"VEC3"
		},
		{
			"bufferView":1,
			"componentType":5126,
			"count":3083735,
			"type":"VEC3"
		},
		{
			"bufferView":2,
			"componentType":5126,
			"count":3083735,
			"type":"VEC2"
		},
		{
			"bufferView":3,
			"componentType":5125,
			"count":5903928,
			"type":"SCALAR"
		}
	],
	"bufferViews":[
		{
			"buffer":0,
			"byteLength":37004820,
			"byteOffset":0,
			"target":34962
		},
		{
			"buffer":0,
			"byteLength":37004820,
			"byteOffset":37004820,
			"target":34962
		},
		{
			"buffer":0,
			"byteLength":24669880,
			"byteOffset":74009640,
			"target":34962
		},
		{
			"buffer":0,
			"byteLength":23615712,
			"byteOffset":98679520,
			"target":34963
		}
	],
	"samplers":[
		{
			"magFilter":9729,
			"minFilter":9987
		}
	],
	"buffers":[
		{
			"byteLength":122295232,
			"uri":"balloon_numbers.bin"
		}
	]
}
