{
  "accessors": [
    {
      "bufferView": 2,
      "componentType": 5126,
      "count": 65532,
      "max": [
        0.13426999747753143,
        0.13656100630760193,
        0.11418499797582626
      ],
      "min": [
        -0.06634479761123657,
        -0.04851730167865753,
        -0.11719200015068054
      ],
      "type": "VEC3"
    },
    {
      "bufferView": 2,
      "byteOffset": 786384,
      "componentType": 5126,
      "count": 65532,
      "max": [
        0.9999984502792358,
        0.9999964833259583,
        0.9999991059303284
      ],
      "min": [
        -0.9997742176055908,
        -0.9997196197509766,
        -0.999600887298584
      ],
      "type": "VEC3"
    },
    {
      "bufferView": 1,
      "componentType": 5126,
      "count": 65532,
      "max": [
        0.9996950030326843,
        0.9763789772987366
      ],
      "min": [
        0.00024414100334979594,
        0.0011452400358393788
      ],
      "type": "VEC2"
    },
    {
      "bufferView": 0,
      "componentType": 5125,
      "count": 308370,
      "type": "SCALAR"
    },
    {
      "bufferView": 2,
      "byteOffset": 1572768,
      "componentType": 5126,
      "count": 65532,
      "max": [
        0.1358879953622818,
        0.1357879936695099,
        0.08849679678678513
      ],
      "min": [
        -0.013661299832165241,
        -0.06440220028162003,
        -0.11719200015068054
      ],
      "type": "VEC3"
    },
    {
      "bufferView": 2,
      "byteOffset": 2359152,
      "componentType": 5126,
      "count": 65532,
      "max": [
        0.9999783635139465,
        0.9999884963035583,
        0.9999986290931702
      ],
      "min": [
        -0.9991366267204285,
        -0.9998887777328491,
        -0.9995480179786682
      ],
      "type": "VEC3"
    },
    {
      "bufferView": 1,
      "byteOffset": 524256,
      "componentType": 5126,
      "count": 65532,
      "max": [
        0.9992280006408691,
        0.9880369901657104
      ],
      "min": [
        0.00024414100334979594,
        0.0002521869901102036
      ],
      "type": "VEC2"
    },
    {
      "bufferView": 0,
      "byteOffset": 1233480,
      "componentType": 5125,
      "count": 300699,
      "type": "SCALAR"
    },
    {
      "bufferView": 2,
      "byteOffset": 3145536,
      "componentType": 5126,
      "count": 65532,
      "max": [
        0.13342399895191193,
        0.1290310025215149,
        0.11719200015068054
      ],
      "min": [
        -0.052074600011110306,
        -0.03243729844689369,
        -0.11578000336885452
      ],
      "type": "VEC3"
    },
    {
      "bufferView": 2,
      "byteOffset": 3931920,
      "componentType": 5126,
      "count": 65532,
      "max": [
        0.9999763369560242,
        0.9999988675117493,
        0.9999843835830688
      ],
      "min": [
        -0.9999672174453735,
        -0.9999079704284668,
        -0.998683750629425
      ],
      "type": "VEC3"
    },
    {
      "bufferView": 1,
      "byteOffset": 1048512,
      "componentType": 5126,
      "count": 65532,
      "max": [
        0.9996240139007568,
        0.9899899959564209
      ],
      "min": [
        0.00024414100334979594,
        0.00025641900720074773
      ],
      "type": "VEC2"
    },
    {
      "bufferView": 0,
      "byteOffset": 2436276,
      "componentType": 5125,
      "count": 281346,
      "type": "SCALAR"
    },
    {
      "bufferView": 2,
      "byteOffset": 4718304,
      "componentType": 5126,
      "count": 65532,
      "max": [
        0.1330540031194687,
        0.11906599998474121,
        0.11427900195121765
      ],
      "min": [
        -0.07223139703273773,
        -0.13581900298595428,
        -0.11719200015068054
      ],
      "type": "VEC3"
    },
    {
      "bufferView": 2,
      "byteOffset": 5504688,
      "componentType": 5126,
      "count": 65532,
      "max": [
        0.9999883770942688,
        0.9999446272850037,
        1.0
      ],
      "min": [
        -0.9998471140861511,
        -0.9999953508377075,
        -0.9999487400054932
      ],
      "type": "VEC3"
    },
    {
      "bufferView": 1,
      "byteOffset": 1572768,
      "componentType": 5126,
      "count": 65532,
      "max": [
        0.9993709921836853,
        0.9870989918708801
      ],
      "min": [
        0.00024414100334979594,
        0.0002719160111155361
      ],
      "type": "VEC2"
    },
    {
      "bufferView": 0,
      "byteOffset": 3561660,
      "componentType": 5125,
      "count": 291930,
      "type": "SCALAR"
    },
    {
      "bufferView": 2,
      "byteOffset": 6291072,
      "componentType": 5126,
      "count": 65532,
      "max": [
        0.13430500030517578,
        0.08429750055074692,
        0.11496199667453766
      ],
      "min": [
        -0.12262900173664093,
        -0.12166699767112732,
        -0.11719200015068054
      ],
      "type": "VEC3"
    },
    {
      "bufferView": 2,
      "byteOffset": 7077456,
      "componentType": 5126,
      "count": 65532,
      "max": [
        0.9999992251396179,
        0.999904215335846,
        1.0
      ],
      "min": [
        -0.9999901056289673,
        -0.9999772310256958,
        -0.9998214840888977
      ],
      "type": "VEC3"
    },
    {
      "bufferView": 1,
      "byteOffset": 2097024,
      "componentType": 5126,
      "count": 65532,
      "max": [
        0.9996430277824402,
        0.9899899959564209
      ],
      "min": [
        0.00024414100334979594,
        0.0002602339955046773
      ],
      "type": "VEC2"
    },
    {
      "bufferView": 0,
      "byteOffset": 4729380,
      "componentType": 5125,
      "count": 297696,
      "type": "SCALAR"
    },
    {
      "bufferView": 2,
      "byteOffset": 7863840,
      "componentType": 5126,
      "count": 65532,
      "max": [
        -0.012664499692618847,
        0.12329500168561935,
        0.10271599888801575
      ],
      "min": [
        -0.1358879953622818,
        -0.08899520337581635,
        -0.11719200015068054
      ],
      "type": "VEC3"
    },
    {
      "bufferView": 2,
      "byteOffset": 8650224,
      "componentType": 5126,
      "count": 65532,
      "max": [
        0.9999930262565613,
        0.9998134970664978,
        0.9999962449073792
      ],
      "min": [
        -0.9999987483024597,
        -0.9999833703041077,
        -0.9998207688331604
      ],
      "type": "VEC3"
    },
    {
      "bufferView": 1,
      "byteOffset": 2621280,
      "componentType": 5126,
      "count": 65532,
      "max": [
        0.9995700120925903,
        0.9958490133285522
      ],
      "min": [
        0.00024414100334979594,
        0.0002614860131870955
      ],
      "type": "VEC2"
    },
    {
      "bufferView": 0,
      "byteOffset": 5920164,
      "componentType": 5125,
      "count": 299616,
      "type": "SCALAR"
    },
    {
      "bufferView": 2,
      "byteOffset": 9436608,
      "componentType": 5126,
      "count": 65532,
      "max": [
        -4.686419924837537e-05,
        -0.015172800049185753,
        0.09835190325975418
      ],
      "min": [
        -0.1284630000591278,
        -0.1277260035276413,
        -0.11719200015068054
      ],
      "type": "VEC3"
    },
    {
      "bufferView": 2,
      "byteOffset": 10222992,
      "componentType": 5126,
      "count": 65532,
      "max": [
        0.9999561309814453,
        0.999809980392456,
        0.9999930262565613
      ],
      "min": [
        -0.9999937415122986,
        -0.9999948740005493,
        -0.9997233748435974
      ],
      "type": "VEC3"
    },
    {
      "bufferView": 1,
      "byteOffset": 3145536,
      "componentType": 5126,
      "count": 65532,
      "max": [
        0.9997349977493286,
        0.9968259930610657
      ],
      "min": [
        0.00024414100334979594,
        0.00027930698706768453
      ],
      "type": "VEC2"
    },
    {
      "bufferView": 0,
      "byteOffset": 7118628,
      "componentType": 5125,
      "count": 302589,
      "type": "SCALAR"
    },
    {
      "bufferView": 2,
      "byteOffset": 11009376,
      "componentType": 5126,
      "count": 65532,
      "max": [
        0.02506049908697605,
        0.11500299721956253,
        0.10328099876642227
      ],
      "min": [
        -0.13378499448299408,
        -0.134660005569458,
        -0.11719200015068054
      ],
      "type": "VEC3"
    },
    {
      "bufferView": 2,
      "byteOffset": 11795760,
      "componentType": 5126,
      "count": 65532,
      "max": [
        0.999086856842041,
        0.9997004866600037,
        0.999995768070221
      ],
      "min": [
        -0.9999969005584717,
        -0.9999812245368958,
        -0.9998917579650879
      ],
      "type": "VEC3"
    },
    {
      "bufferView": 1,
      "byteOffset": 3669792,
      "componentType": 5126,
      "count": 65532,
      "max": [
        0.9993280172348022,
        0.9954540133476257
      ],
      "min": [
        0.00024414100334979594,
        0.0002497429959475994
      ],
      "type": "VEC2"
    },
    {
      "bufferView": 0,
      "byteOffset": 8328984,
      "componentType": 5125,
      "count": 272481,
      "type": "SCALAR"
    },
    {
      "bufferView": 2,
      "byteOffset": 12582144,
      "componentType": 5126,
      "count": 65532,
      "max": [
        0.09742859750986099,
        0.13465900719165802,
        0.11496199667453766
      ],
      "min": [
        -0.12245400249958038,
        -0.13656100630760193,
        -0.11719200015068054
      ],
      "type": "VEC3"
    },
    {
      "bufferView": 2,
      "byteOffset": 13368528,
      "componentType": 5126,
      "count": 65532,
      "max": [
        0.9999984502792358,
        0.9999544620513916,
        1.0
      ],
      "min": [
        -0.9999776482582092,
        -0.9999974966049194,
        -0.9994891285896301
      ],
      "type": "VEC3"
    },
    {
      "bufferView": 1,
      "byteOffset": 4194048,
      "componentType": 5126,
      "count": 65532,
      "max": [
        0.9994770288467407,
        0.9862480163574219
      ],
      "min": [
        0.00024414100334979594,
        0.00025761101278476417
      ],
      "type": "VEC2"
    },
    {
      "bufferView": 0,
      "byteOffset": 9418908,
      "componentType": 5125,
      "count": 282711,
      "type": "SCALAR"
    },
    {
      "bufferView": 2,
      "byteOffset": 14154912,
      "componentType": 5126,
      "count": 11076,
      "max": [
        0.12749700248241425,
        -0.030852800235152245,
        0.08202029764652252
      ],
      "min": [
        -0.005899650044739246,
        -0.11391899734735489,
        -0.11719200015068054
      ],
      "type": "VEC3"
    },
    {
      "bufferView": 2,
      "byteOffset": 14287824,
      "componentType": 5126,
      "count": 11076,
      "max": [
        0.9991815686225891,
        0.9992684721946716,
        0.9999765157699585
      ],
      "min": [
        -0.9952200055122375,
        -0.9998913407325745,
        -0.999706506729126
      ],
      "type": "VEC3"
    },
    {
      "bufferView": 1,
      "byteOffset": 4718304,
      "componentType": 5126,
      "count": 11076,
      "max": [
        0.9787920117378235,
        0.9828919768333435
      ],
      "min": [
        0.008933249861001968,
        0.0002776379988063127
      ],
      "type": "VEC2"
    },
    {
      "bufferView": 0,
      "byteOffset": 10549752,
      "componentType": 5125,
      "count": 40125,
      "type": "SCALAR"
    }
  ],
  "asset": {
    "extras": {
      "author": "CamVas06 (https://sketchfab.com/CamVas06)",
      "license": "CC-BY-4.0 (http://creativecommons.org/licenses/by/4.0/)",
      "source": "https://sketchfab.com/3d-models/2-layer-cake-4b67a0b1ef7f4b5c834db9656d43037d",
      "title": "2 Layer Cake"
    },
    "generator": "Sketchfab-16.95.0",
    "version": "2.0"
  },
  "bufferViews": [
    {
      "buffer": 0,
      "byteLength": 10710252,
      "name": "floatBufferViews",
      "target": 34963
    },
    {
      "buffer": 0,
      "byteLength": 4806912,
      "byteOffset": 10710252,
      "byteStride": 8,
      "name": "floatBufferViews",
      "target": 34962
    },
    {
      "buffer": 0,
      "byteLength": 14420736,
      "byteOffset": 15517164,
      "byteStride": 12,
      "name": "floatBufferViews",
      "target": 34962
    }
  ],
  "buffers": [
    {
      "byteLength": 29937900,
      "uri": "scene.bin"
    }
  ],
  "extensionsUsed": [
    "KHR_materials_unlit"
  ],
  "images": [
    {
      "uri": "textures/material_baseColor.jpeg"
    }
  ],
  "materials": [
    {
      "doubleSided": true,
      "extensions": {
        "KHR_materials_unlit": {}
      },
      "name": "material",
      "pbrMetallicRoughness": {
        "baseColorTexture": {
          "index": 0
        },
        "metallicFactor": 0.0
      }
    }
  ],
  "meshes": [
    {
      "name": "Object_0",
      "primitives": [
        {
          "attributes": {
            "NORMAL": 1,
            "POSITION": 0,
            "TEXCOORD_0": 2
          },
          "indices": 3,
          "material": 0,
          "mode": 4
        }
      ]
    },
    {
      "name": "Object_1",
      "primitives": [
        {
          "attributes": {
            "NORMAL": 5,
            "POSITION": 4,
            "TEXCOORD_0": 6
          },
          "indices": 7,
          "material": 0,
          "mode": 4
        }
      ]
    },
    {
      "name": "Object_2",
      "primitives": [
        {
          "attributes": {
            "NORMAL": 9,
            "POSITION": 8,
            "TEXCOORD_0": 10
          },
          "indices": 11,
          "material": 0,
          "mode": 4
        }
      ]
    },
    {
      "name": "Object_3",
      "primitives": [
        {
          "attributes": {
            "NORMAL": 13,
            "POSITION": 12,
            "TEXCOORD_0": 14
          },
          "indices": 15,
          "material": 0,
          "mode": 4
        }
      ]
    },
    {
      "name": "Object_4",
      "primitives": [
        {
          "attributes": {
            "NORMAL": 17,
            "POSITION": 16,
            "TEXCOORD_0": 18
          },
          "indices": 19,
          "material": 0,
          "mode": 4
        }
      ]
    },
    {
      "name": "Object_5",
      "primitives": [
        {
          "attributes": {
            "NORMAL": 21,
            "POSITION": 20,
            "TEXCOORD_0": 22
          },
          "indices": 23,
          "material": 0,
          "mode": 4
        }
      ]
    },
    {
      "name": "Object_6",
      "primitives": [
        {
          "attributes": {
            "NORMAL": 25,
            "POSITION": 24,
            "TEXCOORD_0": 26
          },
          "indices": 27,
          "material": 0,
          "mode": 4
        }
      ]
    },
    {
      "name": "Object_7",
      "primitives": [
        {
          "attributes": {
            "NORMAL": 29,
            "POSITION": 28,
            "TEXCOORD_0": 30
          },
          "indices": 31,
          "material": 0,
          "mode": 4
        }
      ]
    },
    {
      "name": "Object_8",
      "primitives": [
        {
          "attributes": {
            "NORMAL": 33,
            "POSITION": 32,
            "TEXCOORD_0": 34
          },
          "indices": 35,
          "material": 0,
          "mode": 4
        }
      ]
    },
    {
      "name": "Object_9",
      "primitives": [
        {
          "attributes": {
            "NORMAL": 37,
            "POSITION": 36,
            "TEXCOORD_0": 38
          },
          "indices": 39,
          "material": 0,
          "mode": 4
        }
      ]
    }
  ],
  "nodes": [
    {
      "children": [
        1
      ],
      "matrix": [
        1.0,
        0.0,
        0.0,
        0.0,
        0.0,
        2.220446049250313e-16,
        -1.0,
        0.0,
        0.0,
        1.0,
        2.220446049250313e-16,
        0.0,
        0.0,
        0.0,
        0.0,
        1.0
      ],
      "name": "Sketchfab_model"
    },
    {
      "children": [
        2,
        3,
        4,
        5,
        6,
        7,
        8,
        9,
        10,
        11
      ],
      "name": "shareModel.obj.cleaner.materialmerger.gles"
    },
    {
      "mesh": 0,
      "name": "Object_2"
    },
    {
      "mesh": 1,
      "name": "Object_3"
    },
    {
      "mesh": 2,
      "name": "Object_4"
    },
    {
      "mesh": 3,
      "name": "Object_5"
    },
    {
      "mesh": 4,
      "name": "Object_6"
    },
    {
      "mesh": 5,
      "name": "Object_7"
    },
    {
      "mesh": 6,
      "name": "Object_8"
    },
    {
      "mesh": 7,
      "name": "Object_9"
    },
    {
      "mesh": 8,
      "name": "Object_10"
    },
    {
      "mesh": 9,
      "name": "Object_11"
    }
  ],
  "samplers": [
    {
      "magFilter": 9729,
      "minFilter": 9987,
      "wrapS": 10497,
      "wrapT": 10497
    }
  ],
  "scene": 0,
  "scenes": [
    {
      "name": "Sketchfab_Scene",
      "nodes": [
        0
      ]
    }
  ],
  "textures": [
    {
      "sampler": 0,
      "source": 0
    }
  ]
}
